<?xml version="1.0" encoding="UTF-8"?>
<svg version="1.1" xmlns="http://www.w3.org/2000/svg" width="512" height="512">
<path d="M0 0 C168.96 0 337.92 0 512 0 C512 168.96 512 337.92 512 512 C343.04 512 174.08 512 0 512 C0 343.04 0 174.08 0 0 Z " fill="#8C0CFB" transform="translate(0,0)"/>
<path d="M0 0 C55.11 0 110.22 0 167 0 C166 15 166 15 164 28 C140.9 28 117.8 28 94 28 C93.67 33.28 93.34 38.56 93 44 C92.45897419 48.99050311 91.88470398 53.96198161 91.25 58.93994141 C91.07371845 60.35121523 90.89786947 61.76254315 90.72241211 63.17391968 C90.25165332 66.95068135 89.77487301 70.7266593 89.29681396 74.50250292 C88.79469896 78.47636605 88.29808463 82.45091692 87.80078125 86.42538452 C86.96681413 93.08429704 86.12922752 99.74274567 85.2890625 106.40087891 C84.21195538 114.93683261 83.14055595 123.47349237 82.07104492 132.01040077 C81.14795192 139.37853229 80.22266519 146.74638804 79.29681396 154.11417341 C79.09886375 155.68969032 78.90098783 157.26521657 78.70318604 158.84075212 C78.14023355 163.32476252 77.57611699 167.80862303 77.01004028 172.29224014 C76.75777951 174.29232303 76.5066789 176.29255214 76.25561523 178.29278564 C76.02853882 180.08793106 76.02853882 180.08793106 75.796875 181.91934204 C75.66635742 182.9549357 75.53583984 183.99052937 75.40136719 185.05750465 C74.99358464 188.04703218 74.49602641 191.02384153 74 194 C96.77 194 119.54 194 143 194 C142.28006899 203.35910308 141.24058805 212.69558963 140 222 C84.89 222 29.78 222 -27 222 C-26 207 -26 207 -24 194 C-0.9 194 22.2 194 46 194 C46.33 188.72 46.66 183.44 47 178 C47.54102581 173.00949689 48.11529602 168.03801839 48.75 163.06005859 C48.92628155 161.64878477 49.10213053 160.23745685 49.27758789 158.82608032 C49.74834668 155.04931865 50.22512699 151.2733407 50.70318604 147.49749708 C51.20530104 143.52363395 51.70191537 139.54908308 52.19921875 135.57461548 C53.03318587 128.91570296 53.87077248 122.25725433 54.7109375 115.59912109 C55.78804462 107.06316739 56.85944405 98.52650763 57.92895508 89.98959923 C58.85204808 82.62146771 59.77733481 75.25361196 60.70318604 67.88582659 C60.90113625 66.31030968 61.09901217 64.73478343 61.29681396 63.15924788 C61.85976645 58.67523748 62.42388301 54.19137697 62.98995972 49.70775986 C63.24222049 47.70767697 63.4933211 45.70744786 63.74438477 43.70721436 C63.97146118 41.91206894 63.97146118 41.91206894 64.203125 40.08065796 C64.33364258 39.0450643 64.46416016 38.00947063 64.59863281 36.94249535 C65.00641536 33.95296782 65.50397359 30.97615847 66 28 C43.23 28 20.46 28 -3 28 C-2.28006899 18.64089692 -1.24058805 9.30441037 0 0 Z " fill="#FDFDFE" transform="translate(186,141)"/>
</svg>
